<svg id="Capa_1" enable-background="new 0 0 512 512" height="512" viewBox="0 0 512 512" width="512" xmlns="http://www.w3.org/2000/svg"><g><g><path d="m422.234 352.416h-332.468c-12.241 0-22.165-9.923-22.165-22.165v-254.892c0-12.241 9.923-22.165 22.165-22.165h332.468c12.241 0 22.164 9.923 22.164 22.165v254.892c0 12.241-9.923 22.165-22.164 22.165z" fill="#f9f6f9"/></g><g><path d="m422.234 53.195h-12.681c-11.256 68.065-48.928 141.01-110.124 202.206-46.102 46.102-98.873 78.846-151.202 97.015h274.007c12.241 0 22.165-9.923 22.165-22.165v-254.892c-.001-12.241-9.924-22.164-22.165-22.164z" fill="#f1eaf9"/></g><g><path d="m335.792 70.926h-159.584c-4.896 0-8.866-3.969-8.866-8.866v-17.731c0-4.896 3.969-8.866 8.866-8.866h159.584c4.896 0 8.866 3.969 8.866 8.866v17.732c0 4.896-3.969 8.865-8.866 8.865z" fill="#c19d8e"/></g><g><path d="m369.039 370.147h-226.078c-4.896 0-8.866-3.969-8.866-8.866v-17.731c0-4.896 3.969-8.866 8.866-8.866h226.078c4.896 0 8.866 3.969 8.866 8.866v17.732c0 4.896-3.97 8.865-8.866 8.865z" fill="#c19d8e"/></g><g><path d="m168.45 425.558h175.1v35.463h-175.1z" fill="#8b5e5e"/></g><g><path d="m355.041 506.217-42.522-136.07h37.68l40.985 131.153c1.658 5.307-2.306 10.7-7.866 10.7h-20.411c-3.604 0-6.791-2.343-7.866-5.783z" fill="#aa7a63"/></g><g><path d="m350.199 370.147h-37.68l7.62 24.381h37.679z" fill="#986b54"/></g><g><path d="m156.959 506.217 42.522-136.07h-37.68l-40.985 131.153c-1.658 5.307 2.306 10.7 7.866 10.7h20.411c3.604 0 6.791-2.343 7.866-5.783z" fill="#aa7a63"/></g><g><path d="m161.801 370.147h37.68l-7.62 24.381h-37.679z" fill="#986b54"/></g><g><path d="m369.039 334.684h-35.463c4.896 0 8.866 3.969 8.866 8.866v17.732c0 4.896-3.969 8.866-8.866 8.866h35.463c4.896 0 8.866-3.969 8.866-8.866v-17.732c0-4.897-3.97-8.866-8.866-8.866z" fill="#b78b7a"/></g><g><path d="m335.792 35.463h-31.03c4.896 0 8.866 3.969 8.866 8.866v17.732c0 4.896-3.969 8.866-8.866 8.866h31.03c4.896 0 8.866-3.969 8.866-8.866v-17.732c0-4.896-3.969-8.866-8.866-8.866z" fill="#b78b7a"/></g><g><path d="m273.732 35.463h-35.463v-26.597c0-4.896 3.969-8.866 8.866-8.866h17.732c4.896 0 8.866 3.969 8.866 8.866v26.597z" fill="#986b54"/></g><g><g><path d="m335.09 187.637c-28.135 0-49.352-12.27-49.352-28.539s21.217-28.539 49.352-28.539 49.352 12.27 49.352 28.539-21.218 28.539-49.352 28.539zm0-41.626c-20.379 0-33.899 7.876-33.899 13.087 0 5.21 13.52 13.087 33.899 13.087s33.899-7.876 33.899-13.087-13.52-13.087-33.899-13.087z" fill="#8993da"/></g><g><path d="m260.163 218.857h-29.139c-4.268 0-7.726-3.459-7.726-7.726 0-61.323 29.573-98.994 30.832-100.567 2.665-3.333 7.525-3.873 10.86-1.206 3.327 2.662 3.87 7.515 1.217 10.846-.262.331-24.955 32.064-27.282 83.201h21.237c4.268 0 7.726 3.459 7.726 7.726s-3.457 7.726-7.725 7.726z" fill="#eab14d"/></g><g><path d="m194.608 268.81c-2.793 0-5.49-1.52-6.864-4.171-1.965-3.788-.488-8.451 3.301-10.415 5.639-2.926 34.421-17.518 47.265-17.518 7.236 0 14.766 3.859 21.854 11.182 7.089-7.323 14.619-11.182 21.853-11.182 12.844 0 41.626 14.593 47.265 17.518 3.788 1.965 5.266 6.627 3.301 10.415-1.963 3.789-6.628 5.267-10.415 3.302-12.639-6.553-33.452-15.783-40.15-15.783-3.077 0-7.298 2.682-11.58 7.359-2.629 2.87-6.372 4.516-10.272 4.517-3.899 0-7.644-1.646-10.274-4.516-4.283-4.678-8.503-7.36-11.581-7.36-6.708 0-27.516 9.228-40.15 15.782-1.139.59-2.355.87-3.553.87z" fill="#df75a5"/></g><g><path d="m293.464 297.947h-66.602c-4.268 0-7.726-3.459-7.726-7.726 0-4.268 3.459-7.726 7.726-7.726h66.602c4.268 0 7.726 3.459 7.726 7.726s-3.459 7.726-7.726 7.726z" fill="#df75a5"/></g><g><path d="m197.723 198.043h-62.439c-2.678 0-5.165-1.386-6.572-3.664-1.407-2.279-1.536-5.123-.338-7.518l31.219-62.439c1.309-2.617 3.984-4.271 6.91-4.271s5.602 1.654 6.91 4.271l31.219 62.439c1.198 2.395 1.069 5.239-.338 7.518-1.406 2.278-3.893 3.664-6.571 3.664zm-49.936-15.452h37.435l-18.717-37.436z" fill="#b3e59f"/></g></g></g></svg>